<?xml version="1.0" encoding="UTF-8" standalone="no"?>
<svg
    xmlns:dc="http://purl.org/dc/elements/1.1/"
    xmlns:cc="http://creativecommons.org/ns#"
    xmlns:rdf="http://www.w3.org/1999/02/22-rdf-syntax-ns#"
    xmlns="http://www.w3.org/2000/svg"
    id="svg8"
    version="1.1"
    viewBox="0 0 42.333332 21.166667"
    height="80"
    width="160">
  <defs
     id="defs2" />
  <metadata
     id="metadata5">
    <rdf:RDF>
      <cc:Work
         rdf:about="">
        <dc:format>image/svg+xml</dc:format>
        <dc:type
           rdf:resource="http://purl.org/dc/dcmitype/StillImage" />
        <dc:title></dc:title>
      </cc:Work>
    </rdf:RDF>
  </metadata>
  <g
     transform="translate(0,-275.83332)"
     id="layer1">
    <g
       transform="translate(0,3.7041383)"
       id="g1477">
      <path
         id="path911"
         style="font-style:normal;font-variant:normal;font-weight:normal;font-stretch:normal;font-size:16.93333244px;line-height:1.25;font-family:'Architects Daughter';-inkscape-font-specification:'Architects Daughter';letter-spacing:0px;word-spacing:0px;fill:#777777;fill-opacity:0.94117647;stroke:none;stroke-width:0.26458332"
         d="m 11.129037,283.39877 h 0.463021 q 0.28112,0 0.529166,0.0496 0.264584,0.0496 0.264584,0.3638 0.115755,0.66146 -0.777214,0.64492 -0.248047,-0.0165 -0.463021,-0.0331 -0.198437,-0.0165 -0.330729,0 -0.132291,0 -0.115755,0.0827 0.165365,0.47956 0.347266,1.07487 0.198437,0.59531 0.429948,1.19062 0.595312,1.47175 1.124479,2.11667 -0.28112,0.34727 -0.661459,0.57878 -0.363802,0.23151 -0.396875,0.23151 -0.01654,0 -0.03307,-0.0165 l -2.331641,-4.91133 -4.5144529,1.10795 -0.1653645,0.69453 q -0.4795573,1.90169 -1.0748698,2.64583 -0.099219,0.16536 -0.4134114,0.0331 -0.5291667,-0.19844 -0.5291667,-0.33073 0,-0.0331 0.3472657,-0.95911 0.3472656,-0.92604 0.6945312,-1.86862 0.363802,-0.95912 0.7441406,-2.00091 0.3968749,-1.0418 0.7441405,-1.98438 0.3472656,-0.94258 0.6283854,-1.68672 0.2811198,-0.76067 0.396875,-1.0914 0.1157552,-0.34727 0.1488281,-0.59531 0.049609,-0.26459 0.1322917,-0.44649 0.1653646,-0.38034 0.8268228,-0.38034 0.7110677,0.39688 1.0914062,1.0418 0.396875,0.62838 0.6614583,1.35599 0.2811198,0.7276 0.5457031,1.47174 0.2645834,0.74414 0.7110677,1.35599 0.148828,0.23151 0.446484,0.24805 0.297657,0.0165 0.529167,0.0165 z m -4.1341144,-3.57188 q -0.1322916,1.00873 -0.5953124,2.06706 -0.4630208,1.05833 -0.7441406,1.65364 -0.2811198,0.57878 -0.4795573,1.07487 1.1244791,0 2.7615884,-0.66145 0.4134114,-0.1819 0.79375,-0.33073 -0.7772135,-3.32383 -1.7363281,-3.80339 z" />
      <path
         id="path913"
         style="font-style:normal;font-variant:normal;font-weight:normal;font-stretch:normal;font-size:16.93333244px;line-height:1.25;font-family:'Architects Daughter';-inkscape-font-specification:'Architects Daughter';letter-spacing:0px;word-spacing:0px;fill:#777777;fill-opacity:0.94117647;stroke:none;stroke-width:0.26458332"
         d="m 13.642578,283.03496 q -0.03307,-0.89296 -0.06615,-1.5875 -0.03307,-0.71106 -0.04961,-1.04179 0,-0.34727 -0.264583,-1.67018 0.148828,-0.19844 0.281119,-0.38034 0.148828,-0.1819 0.413412,-0.1819 0.578776,0 0.892968,4.87825 0.165365,2.82774 0.165365,5.65547 0,0.76068 -1.058333,0.76068 l -0.132292,-0.0165 q 0,-0.8599 -0.04961,-2.19935 -0.04961,-1.33945 -0.08268,-2.33164 -0.01654,-0.99219 -0.04961,-1.88516 z" />
      <path
         id="path915"
         style="font-style:normal;font-variant:normal;font-weight:normal;font-stretch:normal;font-size:16.93333244px;line-height:1.25;font-family:'Architects Daughter';-inkscape-font-specification:'Architects Daughter';letter-spacing:0px;word-spacing:0px;fill:#777777;fill-opacity:0.94117647;stroke:none;stroke-width:0.26458332"
         d="m 25.515755,283.92793 q 0.08268,0 0.08268,0.44649 0,0.44648 0.03307,0.61185 l -5.672005,0.69453 0.297656,3.67109 -1.339453,-0.0661 q 0,-1.48829 -0.330729,-3.40651 l -2.149739,0.82682 q -0.214974,0 -0.363802,-0.24805 -0.264584,-0.42995 -0.264584,-0.77721 l 2.513542,-0.89297 q -0.330729,-2.84427 -0.330729,-4.61367 0,-1.78594 0.297656,-2.77813 0.297656,-0.99219 0.859896,-1.32291 0.578776,-0.34727 1.223698,-0.34727 0.644921,0 1.30638,0.28112 0.677995,0.28112 1.289843,0.71107 0.611849,0.42995 1.041797,0.97565 0.429948,0.52917 0.429948,1.0418 0,0.39687 -0.08268,0.56224 -0.661458,-0.92605 -1.604037,-1.65365 -1.124479,-0.8599 -2.116666,-0.8599 -0.942578,0 -1.256771,1.33946 -0.148828,0.69453 -0.148828,1.96784 0,1.25677 0.06615,2.3151 0.06615,1.0418 0.396875,2.10013 1.02526,0 2.298567,-0.1819 2.447396,-0.38034 3.522266,-0.39688 z" />
      <path
         id="path917"
         style="font-style:normal;font-variant:normal;font-weight:normal;font-stretch:normal;font-size:16.93333244px;line-height:1.25;font-family:'Architects Daughter';-inkscape-font-specification:'Architects Daughter';letter-spacing:0px;word-spacing:0px;fill:#777777;fill-opacity:0.94117647;stroke:none;stroke-width:0.26458332"
         d="m 26.392187,289.46765 q -0.380339,-0.0331 -0.380339,-0.33073 0,-0.3638 0.413412,-0.678 0.165364,-0.11575 0.248047,-0.11575 0.09922,0 0.148828,0.0165 0.347265,0 0.463021,0.14883 0.132291,0.13229 0.132291,0.3638 0,0.23151 -0.09922,0.34727 -0.09922,0.11575 -0.248046,0.16536 -0.248047,0.0827 -0.677995,0.0827 z" />
      <path
         id="path919"
         style="font-style:normal;font-variant:normal;font-weight:normal;font-stretch:normal;font-size:16.93333244px;line-height:1.25;font-family:'Architects Daughter';-inkscape-font-specification:'Architects Daughter';letter-spacing:0px;word-spacing:0px;fill:#777777;fill-opacity:0.94117647;stroke:none;stroke-width:0.26458332"
         d="m 29.947526,281.67897 q 0.214974,3.09232 0.363802,7.16029 -0.09922,0.51263 -0.79375,0.51263 -0.181901,0 -0.380339,-0.0661 -0.181901,-0.0827 -0.23151,-0.21498 v -7.3918 z m -1.537891,-2.24895 q 0,-0.57878 0.677995,-0.57878 0.446484,0 0.727604,0.19844 0.04961,0.1819 0.04961,0.3638 0,0.16536 -0.132291,0.33073 -0.132292,0.16536 -0.396875,0.16536 -0.264584,0 -0.529167,-0.11575 -0.264583,-0.13229 -0.396876,-0.3638 z" />
      <path
         id="path921"
         style="font-style:normal;font-variant:normal;font-weight:normal;font-stretch:normal;font-size:16.93333244px;line-height:1.25;font-family:'Architects Daughter';-inkscape-font-specification:'Architects Daughter';letter-spacing:0px;word-spacing:0px;fill:#777777;fill-opacity:0.94117647;stroke:none;stroke-width:0.26458332"
         d="m 31.452343,286.30918 q 0,-1.9513 1.686719,-3.14192 1.339453,-0.94258 3.224609,-1.14102 0.09922,0 0.463021,0 0.363802,0 0.975651,0.21497 1.355989,0.46303 1.852083,1.63711 0.198437,0.46302 0.198437,0.79375 0,0.3142 -0.01654,0.44649 0,2.06706 -1.570963,3.25768 -1.455209,1.09141 -3.638021,1.09141 -1.570964,0 -2.38125,-0.72761 -0.79375,-0.7276 -0.79375,-2.43086 z m 1.141016,0.39688 q 0,1.02526 0.545703,1.38906 0.413411,0.26458 1.389062,0.26458 0.975651,0 1.719792,-0.14882 0.74414,-0.14883 1.322916,-0.51263 1.240235,-0.79375 1.240235,-2.46394 0,-0.99218 -0.529167,-1.62057 -0.578776,-0.67799 -1.521354,-0.67799 -0.644922,0.11575 -1.30638,0.24804 -0.644922,0.13229 -1.223698,0.51263 -1.256771,0.81029 -1.637109,3.00964 z" />
    </g>
  </g>
</svg>
