<svg xmlns="http://www.w3.org/2000/svg" viewBox="0 0 782 327.81"><defs><style>.cls-1{fill:#e81b00;}.cls-2{fill:#111319;}</style></defs><title>Logo Normal</title><g id="Layer_3" data-name="Layer 3"><path class="cls-1" d="M345.8,81.41a17.53,17.53,0,0,1-35,0h-29v165h4.89a4.88,4.88,0,1,1,9.75,0h4.87a4.88,4.88,0,1,1,9.75,0H316a4.88,4.88,0,1,1,9.75,0h4.89a4.88,4.88,0,1,1,9.75,0h4.89a4.88,4.88,0,1,1,9.75,0h4.87a4.88,4.88,0,1,1,9.75,0h5.19v-165Zm-33,33h30v109h-30Z"/><path class="cls-2" d="M38.2,193.44l21.72-5c1.4,11.35,9.74,17.23,20.88,17.23,8.55,0,15.34-3.78,15.27-12.33C96,183.84,84.79,180.83,72.45,177,57.6,172.42,41.7,167,41.7,148.32c0-18.85,15.41-29.49,35.73-29.49,17.79,0,35.73,7.22,39.79,26.62l-20.32,5C95,140.4,88.22,136,78.69,136,70.21,136,63,139.49,63,147.83c0,7.78,9.95,10.37,21.44,13.8,15.27,4.62,33.35,10.51,33.35,30.69,0,21.51-18,30.55-37.83,30.55C58.23,222.86,41.28,212.42,38.2,193.44Z"/><path class="cls-2" d="M122,120.41h21.81l19.71,76.47,22.58-76.47h17.68l22.44,76.47,19.92-76.47h21.74l-26.42,101h-27L195,159l-19.5,62.42h-27Z"/><path class="cls-2" d="M390,170.81c0-31.81,22-52,51.77-52,22.56,0,40.63,11.56,47.85,30.76L470,156.73c-4.48-11.77-15.2-18.57-28.23-18.57-17.44,0-30.83,12.19-30.83,32.65s13.38,32.72,30.83,32.72c13,0,23.75-6.87,28.23-18.64L489.61,192c-7.22,19.2-25.29,30.83-47.85,30.83C412,222.86,390,202.62,390,170.81Z"/><path class="cls-2" d="M534.22,178.41H526.8v43h-21v-101h21v40h7.14l31.71-40h25.26l-39.14,48.3,40.33,52.7H565.65Z"/><path class="cls-2" d="M626.8,138.41v23h33v18h-33v23h38v19h-59v-101h59v18Z"/><path class="cls-2" d="M743.8,138.41h-24v83h-21v-83h-24v-18h69Z"/></g></svg>