<svg xmlns="http://www.w3.org/2000/svg" height="48" viewBox="0 96 960 960" width="48"><path d="M480 773q12 0 21-9t9-21q0-12-9-21t-21-9q-12 0-21 9t-9 21q0 12 9 21t21 9Zm0-167q12 0 21-9t9-21q0-12-9-21t-21-9q-12 0-21 9t-9 21q0 12 9 21t21 9Zm0-167q12 0 21-9t9-21q0-12-9-21t-21-9q-12 0-21 9t-9 21q0 12 9 21t21 9Zm340 457H140q-24.75 0-42.375-17.625T80 836V683q37-8 61.5-37.5T166 576q0-40-24.5-70T80 469V316q0-24.75 17.625-42.375T140 256h680q24.75 0 42.375 17.625T880 316v153q-37 7-61.5 37T794 576q0 40 24.5 69.5T880 683v153q0 24.75-17.625 42.375T820 896Zm0-60V727q-38-26-62-65t-24-86q0-47 24-86t62-65V316H140v109q39 26 62.5 65t23.5 86q0 47-23.5 86T140 727v109h680ZM480 576Z"/></svg>